<svg width="157" height="75" viewBox="0 0 157 75" fill="none" xmlns="http://www.w3.org/2000/svg">
<g filter="url(#filter0_d_5_241)">
<rect width="157" height="75" rx="18" fill="#FEFEFD"/>
</g>
<path d="M25 21C25 18.7909 26.7909 17 29 17H59C60.1046 17 61 17.8954 61 19V55C61 56.1046 60.1046 57 59 57H29C26.7909 57 25 55.2091 25 53V21Z" fill="#FF8282"/>
<path d="M31 49H55C56.1046 49 57 48.1046 57 47C57 45.8954 56.1046 45 55 45H31C29.8954 45 29 45.8954 29 47C29 48.1046 29.8954 49 31 49Z" fill="white"/>
<text fill="#0D1111" xml:space="preserve" style="white-space: pre" font-family="Poppins" font-size="10" font-weight="500" letter-spacing="0em"><tspan x="77" y="33">Courses </tspan><tspan x="77" y="48">1000+</tspan></text>
<defs>
<filter id="filter0_d_5_241" x="-80" y="-70" width="317" height="235" filterUnits="userSpaceOnUse" color-interpolation-filters="sRGB">
<feFlood flood-opacity="0" result="BackgroundImageFix"/>
<feColorMatrix in="SourceAlpha" type="matrix" values="0 0 0 0 0 0 0 0 0 0 0 0 0 0 0 0 0 0 127 0" result="hardAlpha"/>
<feOffset dy="10"/>
<feGaussianBlur stdDeviation="40"/>
<feColorMatrix type="matrix" values="0 0 0 0 0 0 0 0 0 0 0 0 0 0 0 0 0 0 0.05 0"/>
<feBlend mode="normal" in2="BackgroundImageFix" result="effect1_dropShadow_5_241"/>
<feBlend mode="normal" in="SourceGraphic" in2="effect1_dropShadow_5_241" result="shape"/>
</filter>
</defs>
</svg>
